# xmcd
#
# Track frame offsets: 
#        150
#        16957
#        27534
#        43463
#        61235
#        75485
#        95630
#        105680
#        124200
#        137370
#        158722
#        168469
#        182274
#        192405
#        205665
#        223567
#        237455
#        259010
#        272075
#        287023
#        308056
#        323314
#        340519
#
# Disc length: 4777 seconds
#
# Revision: 0
# Processed by: cddbd v1.5.2PL0 Copyright (c) Steve Scherf et al.
# Submitted via: ExactAudioCopy v1.3
#
DISCID=3e12a717
DTITLE=Various Artist - Akella Presents - vol.139 - Rockin' Rollers B
DTITLE=lues  CD1
DYEAR=2018
DGENRE=Rock and Roll
TTITLE0=Roy Mette - Big In That
TTITLE1=Rockocola - Boogie
TTITLE2=Terry Davidson - World's Last GTO
TTITLE3=Bluesville Station - Big Bottom Baby
TTITLE4=Mark May - Short and Stout
TTITLE5=Eddie Martin - I done, Done It
TTITLE6=Mike Eldred Trio - She's A Rocket
TTITLE7=Wailin' Walker - Let The Good Times Roll
TTITLE8=The Wailin' Walker Band - Nitemover
TTITLE9=Trampled Under Foot - Love My Baby
TTITLE10=Ed Maly - Do Something Crazy
TTITLE11=Blues 'N' Trouble - Don't Need No Doctor
TTITLE12=Wentus Blues Band - Love Bug
TTITLE13=Colin James - Honey Bee
TTITLE14=Louis King - Funny Little Valentine
TTITLE15=Harris, Hunter and Fenn - Going to Vancouver
TTITLE16=George Thorogood - Move It
TTITLE17=Sauce Boss - She's Mine
TTITLE18=Jeff Pitchell - It Comes to Me Naturally
TTITLE19=Built For The Comfort - Give Me One More Time
TTITLE20=Dr. Feelgood - I'm In The Mood For You
TTITLE21=Mike Goudreau - L'herbe Est Pas Plus Verte
TTITLE22=Wild Willie and Big Deal - What‘s Up
EXTD=
EXTT0=
EXTT1=
EXTT2=
EXTT3=
EXTT4=
EXTT5=
EXTT6=
EXTT7=
EXTT8=
EXTT9=
EXTT10=
EXTT11=
EXTT12=
EXTT13=
EXTT14=
EXTT15=
EXTT16=
EXTT17=
EXTT18=
EXTT19=
EXTT20=
EXTT21=
EXTT22=
PLAYORDER=
